<svg width="71" height="72" viewBox="0 0 71 72" fill="none" xmlns="http://www.w3.org/2000/svg">
<path d="M24.524 34.3203C27.6746 34.3203 30.2287 31.7663 30.2287 28.6156C30.2287 25.465 27.6746 22.9109 24.524 22.9109C21.3734 22.9109 18.8193 25.465 18.8193 28.6156C18.8193 31.7663 21.3734 34.3203 24.524 34.3203Z" fill="#383333"/>
<path d="M11.2804 21.2469C11.1632 21.1328 10.5226 20.5297 9.60541 20.5969C9.47103 20.6078 8.93666 20.6469 8.57728 20.9828C7.63978 21.8563 8.00072 24.6141 9.61322 25.3234C10.5148 25.7188 11.4726 25.3234 11.8007 25.1781L11.2804 21.2469Z" fill="#FF8C5F"/>
<path d="M10.2567 24.4672C10.2415 24.4669 10.2269 24.4607 10.2161 24.45C9.81454 24.0625 9.63173 23.6593 9.67548 23.2531C9.7286 22.7578 10.102 22.3875 10.3224 22.2093L8.96141 22.2734C8.94593 22.2738 8.93088 22.2682 8.9195 22.2577C8.90811 22.2472 8.90129 22.2326 8.90048 22.2172C8.90006 22.2094 8.90119 22.2017 8.90381 22.1944C8.90643 22.1872 8.91048 22.1805 8.91572 22.1748C8.92097 22.1691 8.9273 22.1645 8.93434 22.1614C8.94138 22.1582 8.949 22.1564 8.95673 22.1562L10.5192 22.0843C10.5324 22.083 10.5457 22.0862 10.5568 22.0935C10.5679 22.1008 10.5762 22.1117 10.5802 22.1243C10.5842 22.1369 10.5838 22.1506 10.5789 22.1629C10.5741 22.1753 10.5651 22.1856 10.5536 22.1922C10.5536 22.1922 9.86766 22.6281 9.80048 23.2672C9.76141 23.6343 9.93173 24.0047 10.3052 24.3609C10.3159 24.372 10.322 24.3868 10.322 24.4023C10.322 24.4178 10.3159 24.4326 10.3052 24.4437C10.2997 24.4514 10.2924 24.4575 10.2839 24.4616C10.2755 24.4657 10.2661 24.4676 10.2567 24.4672Z" fill="#383333"/>
<path d="M30.5398 21.2469C30.657 21.1328 31.2977 20.5297 32.2164 20.5969C32.3492 20.6078 32.8836 20.6469 33.2445 20.9828C34.182 21.8563 33.8195 24.6141 32.207 25.3234C31.3055 25.7188 30.3477 25.3234 30.0195 25.1781C30.1945 23.8667 30.368 22.5563 30.5398 21.2469Z" fill="#FF8C5F"/>
<path d="M31.8282 24.4672C31.8202 24.4672 31.8124 24.4656 31.8051 24.4623C31.7978 24.4591 31.7913 24.4544 31.786 24.4484C31.7805 24.443 31.7761 24.4366 31.7731 24.4295C31.7701 24.4224 31.7685 24.4147 31.7685 24.407C31.7685 24.3993 31.7701 24.3917 31.7731 24.3846C31.7761 24.3774 31.7805 24.371 31.786 24.3656C32.1594 24.0047 32.3298 23.6344 32.2907 23.2719C32.2235 22.6328 31.5438 22.2016 31.5376 22.1969C31.5264 22.1901 31.5179 22.1798 31.5134 22.1676C31.5089 22.1554 31.5086 22.1421 31.5126 22.1297C31.5168 22.1177 31.5246 22.1074 31.535 22.1001C31.5453 22.0928 31.5577 22.089 31.5704 22.0891L33.1329 22.1609C33.1406 22.1611 33.1482 22.1629 33.1553 22.1661C33.1623 22.1693 33.1686 22.1738 33.1739 22.1795C33.1791 22.1852 33.1832 22.1919 33.1858 22.1991C33.1884 22.2064 33.1896 22.2141 33.1891 22.2219C33.1879 22.2372 33.181 22.2515 33.1697 22.262C33.1584 22.2724 33.1436 22.2782 33.1282 22.2781L31.7673 22.2141C31.9876 22.3922 32.361 22.7625 32.4141 23.2578C32.4563 23.6641 32.2751 24.0672 31.8735 24.4547C31.8672 24.4597 31.8599 24.4635 31.8521 24.4656C31.8443 24.4678 31.8362 24.4683 31.8282 24.4672Z" fill="#383333"/>
<path d="M20.9096 29.8172C27.0658 29.8172 32.0564 24.8266 32.0564 18.6703C32.0564 12.5141 27.0658 7.52344 20.9096 7.52344C14.7533 7.52344 9.7627 12.5141 9.7627 18.6703C9.7627 24.8266 14.7533 29.8172 20.9096 29.8172Z" fill="#FFB08D"/>
<path d="M17.4133 28.1297C17.8399 29.9141 18.1649 32.5531 16.7415 34.4719C14.8665 37.0016 11.7946 35.7875 9.53365 37.9313C7.20084 40.1453 7.7774 44.2828 8.86177 52.4891C9.46021 57.0203 10.6008 59.4938 10.2243 64.1563C10.0982 65.7126 9.84102 67.2556 9.45552 68.7688C11.9596 69.7508 14.5726 70.4285 17.2383 70.7875C24.1665 71.7156 29.8711 70.2625 33.1915 69.1047C32.846 66.8286 32.656 64.5316 32.6227 62.2297C32.5665 58.4109 32.9477 56.4938 33.5602 50.6141C34.2868 43.5953 34.6461 40.0875 33.5602 38.6984C31.1883 35.6594 26.7633 37.2766 24.5258 33.9891C23.2055 32.0484 23.4399 29.5609 23.854 27.7391L17.4133 28.1297Z" fill="#FFB08D"/>
<path d="M9.83008 20.4171C10.1332 22.25 11.2176 27.2734 15.3973 30.4671C16.3348 31.1781 17.8176 32.2859 20.0051 32.5265C22.8488 32.839 25.0316 31.4781 25.9754 30.8906C31.0051 27.7656 31.8566 21.5265 31.9895 20.4218C31.9895 20.4171 18.466 5.42652 9.83008 20.4171Z" fill="#FFB08D"/>
<path d="M14.0334 20.2313C14.6017 19.8233 15.2822 19.6006 15.9818 19.5938C16.4505 19.5828 17.0974 19.5672 17.2959 19.9391C17.3404 20.0196 17.3627 20.1105 17.3605 20.2025C17.3583 20.2945 17.3317 20.3842 17.2834 20.4625C17.0599 20.7609 16.5021 20.4906 15.599 20.4828C14.4099 20.4719 13.6365 20.9219 13.5584 20.7516C13.5021 20.6281 13.8834 20.3438 14.0334 20.2313ZM27.7318 20.1922C27.1578 19.7918 26.4738 19.5789 25.774 19.5828C25.3052 19.5828 24.6584 19.5719 24.4662 19.9453C24.4225 20.0264 24.4013 20.1178 24.4049 20.2098C24.4085 20.3019 24.4366 20.3913 24.4865 20.4688C24.713 20.7641 25.2677 20.4859 26.1709 20.4688C27.3584 20.4406 28.138 20.8797 28.213 20.7078C28.2693 20.5813 27.8834 20.3016 27.7318 20.1922ZM20.7005 24.7719C20.4459 24.7719 20.2318 24.7563 20.1334 24.7484C20.1231 24.7477 20.1132 24.7448 20.1041 24.7401C20.095 24.7355 20.0869 24.729 20.0804 24.7211C20.0738 24.7132 20.0689 24.7041 20.0659 24.6943C20.0629 24.6845 20.062 24.6743 20.063 24.6641C20.0654 24.6438 20.0755 24.6251 20.0912 24.6121C20.1069 24.599 20.127 24.5924 20.1474 24.5938C20.7443 24.6438 21.6287 24.6156 21.7177 24.3984C21.8209 24.1531 21.3568 22.9016 21.0412 22.1703C21.0371 22.1609 21.0349 22.1507 21.0347 22.1404C21.0345 22.1301 21.0363 22.1199 21.0401 22.1103C21.0439 22.1008 21.0495 22.092 21.0567 22.0846C21.0638 22.0772 21.0724 22.0713 21.0818 22.0672C21.0912 22.0631 21.1014 22.0609 21.1117 22.0607C21.122 22.0605 21.1322 22.0624 21.1418 22.0661C21.1513 22.0699 21.1601 22.0755 21.1675 22.0827C21.1749 22.0898 21.1808 22.0984 21.1849 22.1078C21.2709 22.3078 22.024 24.0719 21.863 24.4516C21.7552 24.7188 21.1693 24.7719 20.7005 24.7719Z" fill="#383333"/>
<path d="M15.8277 25.1549C15.8355 24.7019 15.2521 24.3246 14.5247 24.3121C13.7974 24.2997 13.2015 24.6568 13.1937 25.1098C13.186 25.5628 13.7693 25.9401 14.4967 25.9525C15.224 25.965 15.82 25.6078 15.8277 25.1549Z" fill="#FF8C5F"/>
<path d="M28.1705 25.3664C28.1782 24.9134 27.5949 24.5361 26.8675 24.5237C26.1402 24.5112 25.5442 24.8684 25.5365 25.3213C25.5287 25.7743 26.1121 26.1516 26.8395 26.1641C27.5668 26.1765 28.1627 25.8194 28.1705 25.3664Z" fill="#FF8C5F"/>
<path fill-rule="evenodd" clip-rule="evenodd" d="M26.082 23.2562C25.9598 23.3961 25.7987 23.4966 25.6193 23.5448C25.4399 23.593 25.2502 23.5868 25.0743 23.527C24.8984 23.4672 24.7442 23.3565 24.6313 23.209C24.5185 23.0614 24.452 22.8836 24.4403 22.6982C24.4287 22.5128 24.4724 22.3281 24.5659 22.1676C24.6594 22.007 24.7985 21.8779 24.9655 21.7966C25.1325 21.7152 25.3199 21.6853 25.504 21.7107C25.688 21.7361 25.8604 21.8155 25.9992 21.939C26.1838 22.1033 26.2961 22.3339 26.3116 22.5806C26.3271 22.8273 26.2446 23.0701 26.082 23.2562Z" fill="#383333"/>
<path fill-rule="evenodd" clip-rule="evenodd" d="M26.9283 22.014C26.908 21.9968 26.7252 22.314 26.4908 22.2906C26.3174 22.2734 26.2721 22.0843 26.0518 21.9156C25.8598 21.7775 25.6289 21.7042 25.3924 21.7062C25.4921 21.9041 25.6188 22.0871 25.769 22.25C25.983 22.4812 26.1205 22.6312 26.3065 22.6343C26.6846 22.639 26.9565 22.0375 26.9283 22.014ZM17.269 23.5843C17.1383 23.7165 16.9712 23.8067 16.7891 23.8437C16.607 23.8807 16.418 23.8627 16.2461 23.7921C16.0742 23.7214 15.9272 23.6012 15.8237 23.4469C15.7203 23.2925 15.665 23.1108 15.665 22.925C15.665 22.7391 15.7203 22.5575 15.8237 22.4031C15.9272 22.2487 16.0742 22.1285 16.2461 22.0579C16.418 21.9872 16.607 21.9692 16.7891 22.0062C16.9712 22.0432 17.1383 22.1335 17.269 22.2656C17.4426 22.4411 17.54 22.6781 17.54 22.925C17.54 23.1719 17.4426 23.4088 17.269 23.5843Z" fill="#383333"/>
<path fill-rule="evenodd" clip-rule="evenodd" d="M15.0194 22.4062C15.0397 22.3875 15.2428 22.6922 15.4756 22.6547C15.6475 22.6265 15.6803 22.4328 15.8881 22.2515C16.0704 22.101 16.2959 22.0123 16.5319 21.9984C16.4454 22.2021 16.3313 22.393 16.1928 22.5656C15.9944 22.8109 15.8678 22.9687 15.6819 22.9844C15.3038 23.014 15.0006 22.4312 15.0194 22.4062Z" fill="#383333"/>
<path d="M11.493 36.7938C11.493 36.7938 7.43047 37.4891 6.06797 41.9578C4.70547 46.4266 3.47266 61.1297 3.47266 61.1297C3.47266 61.1297 5.63516 62.7875 9.38359 61.85L12.3445 47.436C12.3445 47.436 15.4055 40.925 11.493 36.7938ZM30.1336 36.7938C30.1336 36.7938 34.1961 37.4891 35.5602 41.9578C36.9242 46.4266 38.1539 61.1297 38.1539 61.1297C38.1539 61.1297 35.9914 62.7875 32.2445 61.85L29.2898 47.436C29.2898 47.436 26.2227 40.925 30.1336 36.7938Z" fill="#5271FF"/>
<path d="M33.1492 57.3812C33.6726 48.3359 36.6164 42.9797 33.9164 39.0156C32.518 36.9609 30.0336 36.4343 28.418 36.3015C27.7411 36.1509 27.0822 35.9288 26.4523 35.639C25.4883 39.7844 21.2633 45.0625 21.2633 45.0625C17.793 43.2609 14.7992 35.9265 14.7992 35.9265C14.3679 36.0853 13.9256 36.2122 13.4758 36.3062C12.1242 36.3422 10.3508 36.6265 9.03983 37.8687C6.1367 40.6359 7.70858 46.1203 8.44608 51.9812C8.99295 56.3344 9.30702 62.7047 7.95545 70.8015L18.8242 71V70.9562C20.7907 71.1246 22.7681 71.1189 24.7336 70.939L28.2961 70.9703C30.368 70.989 32.4398 71.012 34.5117 71.039C33.057 65.2547 32.9695 60.5797 33.1492 57.3812Z" fill="#5271FF"/>
<path d="M25.3707 11.3609C23.4814 13.6918 21.0465 15.5208 18.2816 16.6859C16.0882 17.6039 13.7358 18.0817 11.3582 18.0922C10.8688 20.8179 11.158 23.6265 12.1925 26.1953C12.1925 26.1953 9.89879 25.2828 8.95504 20.7422C8.01129 16.2016 11.0394 5.10311 21.3222 6.88124C22.4218 6.74369 23.5347 6.75367 24.6316 6.91092C26.8134 7.23527 28.8267 8.27187 30.3582 9.85936C31.7644 11.45 32.1269 13.1219 32.5675 15.1719C32.9654 17.0021 33.0389 18.888 32.7847 20.7437C32.5863 22.1578 32.3488 23.7125 31.2222 25.2906C30.7803 25.9067 30.2544 26.4579 29.6597 26.9281C30.7146 24.4312 31.2039 21.7318 31.0925 19.0234C30.6067 18.7888 30.141 18.5144 29.7004 18.2031C26.805 16.1453 25.7629 12.975 25.3707 11.3609ZM33.0535 61.4797C33.033 61.4797 33.0134 61.4717 32.9988 61.4573C32.9842 61.443 32.9758 61.4236 32.9754 61.4031L32.6441 50.5562C32.643 50.5377 32.6486 50.5195 32.6597 50.5047C33.3391 49.6388 33.7426 48.5887 33.8178 47.4907C33.8931 46.3926 33.6366 45.2973 33.0816 44.3469C33.071 44.3288 33.0681 44.3074 33.0733 44.2871C33.0786 44.2669 33.0917 44.2496 33.1097 44.2391C33.1278 44.2285 33.1492 44.2255 33.1695 44.2308C33.1897 44.2361 33.207 44.2491 33.2175 44.2672C33.7855 45.241 34.0493 46.3624 33.9749 47.4873C33.9006 48.6121 33.4915 49.6891 32.8004 50.5797L33.1254 61.3984C33.1258 61.4193 33.118 61.4395 33.1037 61.4547C33.0894 61.4699 33.0697 61.4789 33.0488 61.4797H33.0535ZM10.0004 61.4797C9.99009 61.4793 9.98001 61.4769 9.97068 61.4725C9.96136 61.4682 9.95297 61.4621 9.94601 61.4546C9.93904 61.4471 9.93363 61.4382 9.93009 61.4286C9.92654 61.4189 9.92493 61.4087 9.92535 61.3984L10.2566 50.5797C9.56541 49.6891 9.15635 48.6121 9.08201 47.4873C9.00766 46.3624 9.27143 45.241 9.83941 44.2672C9.84443 44.2582 9.85119 44.2504 9.8593 44.2441C9.8674 44.2378 9.87668 44.2333 9.88659 44.2306C9.8965 44.228 9.90683 44.2274 9.91698 44.2288C9.92713 44.2303 9.93688 44.2338 9.94566 44.2391C9.96351 44.2498 9.97645 44.2671 9.9817 44.2872C9.98696 44.3074 9.98412 44.3288 9.97379 44.3469C9.41987 45.2976 9.16397 46.3928 9.23918 47.4905C9.31439 48.5883 9.71726 49.6383 10.3957 50.5047C10.4073 50.5193 10.4133 50.5376 10.4129 50.5562L10.0816 61.4031C10.0808 61.424 10.0718 61.4437 10.0566 61.458C10.0414 61.4723 10.0212 61.4801 10.0004 61.4797ZM21.0269 28.4906C20.7094 28.4899 20.3963 28.415 20.1129 28.2719C20.0994 28.2646 20.0893 28.2524 20.0847 28.2378C20.08 28.2233 20.0812 28.2075 20.0879 28.1937C20.0912 28.1868 20.0959 28.1806 20.1016 28.1755C20.1074 28.1704 20.1141 28.1665 20.1213 28.1641C20.1286 28.1616 20.1363 28.1606 20.144 28.1611C20.1516 28.1617 20.1591 28.1637 20.166 28.1672C20.4324 28.3019 20.7268 28.3721 21.0254 28.3721C21.3239 28.3721 21.6183 28.3019 21.8847 28.1672C21.8916 28.1637 21.8991 28.1617 21.9067 28.1611C21.9144 28.1606 21.9221 28.1616 21.9294 28.1641C21.9366 28.1665 21.9433 28.1704 21.9491 28.1755C21.9548 28.1806 21.9595 28.1868 21.9629 28.1937C21.9695 28.2075 21.9707 28.2233 21.966 28.2378C21.9614 28.2524 21.9513 28.2646 21.9379 28.2719C21.6736 28.4049 21.3836 28.479 21.0879 28.489L21.0269 28.4906ZM20.8207 32.6281C19.7414 32.6266 18.6738 32.4049 17.6832 31.9765C17.674 31.9722 17.6657 31.9661 17.6589 31.9585C17.6521 31.951 17.6469 31.9421 17.6436 31.9325C17.6402 31.9229 17.6388 31.9128 17.6395 31.9026C17.6401 31.8925 17.6427 31.8825 17.6472 31.8734C17.6517 31.8642 17.658 31.8559 17.6657 31.8491C17.6734 31.8423 17.6824 31.8371 17.6921 31.8337C17.7018 31.8304 17.7121 31.829 17.7224 31.8296C17.7326 31.8303 17.7427 31.833 17.7519 31.8375C17.7816 31.8515 20.7457 33.2594 23.6363 31.8375C23.6548 31.8286 23.676 31.8273 23.6955 31.8337C23.715 31.8401 23.7313 31.8538 23.741 31.8719C23.7455 31.8811 23.7482 31.8911 23.7488 31.9014C23.7495 31.9116 23.7481 31.9219 23.7447 31.9317C23.7414 31.9414 23.7362 31.9504 23.7294 31.9581C23.7226 31.9658 23.7143 31.972 23.705 31.9765C22.8067 32.4133 21.8195 32.6363 20.8207 32.6281Z" fill="#383333"/>
<path d="M25.9005 32.7078C25.8902 32.7091 25.8798 32.7084 25.8698 32.7057C25.8598 32.703 25.8504 32.6984 25.8422 32.6921C25.834 32.6858 25.8272 32.6779 25.822 32.6689C25.8169 32.66 25.8135 32.6501 25.8122 32.6398C25.8108 32.6296 25.8115 32.6191 25.8142 32.6092C25.8169 32.5992 25.8216 32.5898 25.8279 32.5816C25.8342 32.5734 25.8421 32.5665 25.851 32.5614C25.86 32.5562 25.8699 32.5529 25.8801 32.5515C27.6739 32.0828 28.502 30.1531 28.5098 30.1328C28.5179 30.1135 28.5333 30.0983 28.5527 30.0903C28.572 30.0824 28.5937 30.0825 28.613 30.0906C28.6322 30.0987 28.6475 30.1141 28.6554 30.1334C28.6633 30.1528 28.6632 30.1745 28.6551 30.1937C28.6458 30.214 27.7895 32.2094 25.9192 32.7031L25.9005 32.7078Z" fill="white"/>
<path d="M2.21648 46.3922C1.98523 48.7 0.70242 62.4312 5.22898 64.125C6.11961 64.4578 7.68054 64.4937 8.60398 63.664C9.85398 62.5359 9.41961 60.2593 8.91648 57.4765C8.47742 55.0359 7.82273 51.2937 7.06336 46.3828C6.57972 46.5649 6.07705 46.6917 5.56492 46.7609C4.43535 46.9083 3.28691 46.7818 2.21648 46.3922ZM38.8087 48.0312C38.8087 48.0312 40.1134 45.2062 41.0165 43.9218C41.9196 42.6375 42.9712 41.6781 43.4727 41.725C43.9743 41.7718 42.9696 43.3265 42.9696 43.3265C43.9617 42.8743 44.8794 42.2743 45.6915 41.5468C46.8837 40.4281 47.5821 39.2906 48.2165 39.6062C48.8509 39.9218 47.6884 43.7203 46.2118 45.589C44.7352 47.4578 43.1415 49.0172 42.4118 50.7093C42.4055 50.7093 38.9602 50.15 38.8087 48.0312Z" fill="#FFB08D"/>
<path d="M7.116 47.6625C7.116 47.6625 6.89568 44.3421 6.491 42.714C6.08631 41.0859 5.39725 39.7265 4.88162 39.5796C4.366 39.4328 4.77537 41.3781 4.77537 41.3781C3.9595 40.5462 3.27462 39.5952 2.74412 38.5578C1.98318 36.9828 1.72225 35.5812 0.967559 35.6515C0.212871 35.7218 -0.0824411 39.9625 0.675371 42.3937C1.43318 44.825 2.41756 46.9921 2.50037 48.9687C2.50037 48.9687 6.15037 49.7234 7.116 47.6625ZM43.9488 48.2875C43.5394 50.5703 41.0082 64.125 36.191 64.5156C35.2441 64.5906 33.7332 64.2031 33.066 63.1468C32.166 61.7171 33.2222 59.6484 34.4597 57.1093C35.5535 54.8828 37.2035 51.464 39.2816 46.9531C39.6964 47.2633 40.1451 47.5254 40.6191 47.7343C41.6685 48.1833 42.8106 48.373 43.9488 48.2875Z" fill="#FFB08D"/>
<path d="M10.5141 12.175C10.5141 12.175 21.5782 6.27811 32.0579 13.1484C32.429 11.9012 32.7141 10.63 32.911 9.34374C33.1719 7.62499 33.3063 6.75311 33.1891 6.07499C32.6673 3.05311 26.6735 1.0828 21.9266 0.865614C16.1641 0.601551 9.53131 2.79374 9.06256 5.76874C8.97506 6.31561 9.07819 6.99843 9.21881 7.91405C9.4394 9.39018 9.87584 10.8258 10.5141 12.175Z" fill="#5271FF"/>
<path d="M64.3867 44.3062H40.1852C39.4249 44.3062 38.8086 44.9225 38.8086 45.6828V63.7093C38.8086 64.4696 39.4249 65.0859 40.1852 65.0859H64.3867C65.147 65.0859 65.7633 64.4696 65.7633 63.7093V45.6828C65.7633 44.9225 65.147 44.3062 64.3867 44.3062Z" fill="#637FFF"/>
<path d="M64.3846 68.9125H38.8174C38.4506 68.9125 38.1533 69.2098 38.1533 69.5765V70.1859C38.1533 70.5527 38.4506 70.85 38.8174 70.85H64.3846C64.7513 70.85 65.0486 70.5527 65.0486 70.1859V69.5765C65.0486 69.2098 64.7513 68.9125 64.3846 68.9125Z" fill="#637FFF"/>
<path d="M56.9412 58.2625H50.2193C49.9639 58.2625 49.7568 58.4696 49.7568 58.725V70.6938C49.7568 70.9492 49.9639 71.1563 50.2193 71.1563H56.9412C57.1966 71.1563 57.4037 70.9492 57.4037 70.6938V58.725C57.4037 58.4696 57.1966 58.2625 56.9412 58.2625Z" fill="#99ABFF"/>
<path d="M58.5549 67.9703H49.0018C48.7101 67.9703 48.4736 68.2067 48.4736 68.4984V70.475C48.4736 70.7666 48.7101 71.0031 49.0018 71.0031H58.5549C58.8466 71.0031 59.083 70.7666 59.083 70.475V68.4984C59.083 68.2067 58.8466 67.9703 58.5549 67.9703Z" fill="#99ABFF"/>
<path d="M21.0234 27.5625H20.8859C20.5383 27.5337 20.2054 27.4095 19.9239 27.2035C19.6424 26.9976 19.4232 26.7179 19.2906 26.3953C19.2831 26.376 19.2834 26.3545 19.2912 26.3354C19.299 26.3162 19.3139 26.3007 19.3328 26.2922C19.3422 26.2881 19.3523 26.286 19.3626 26.2859C19.3728 26.2858 19.383 26.2878 19.3925 26.2917C19.4019 26.2957 19.4105 26.3015 19.4177 26.3088C19.4249 26.3161 19.4306 26.3248 19.4343 26.3343C19.5623 26.6525 19.7826 26.9251 20.0667 27.117C20.3509 27.309 20.6859 27.4116 21.0289 27.4116C21.3718 27.4116 21.7069 27.309 21.991 27.117C22.2752 26.9251 22.4954 26.6525 22.6234 26.3343C22.6271 26.3248 22.6328 26.3161 22.64 26.3088C22.6472 26.3015 22.6558 26.2957 22.6652 26.2917C22.6747 26.2878 22.6849 26.2858 22.6951 26.2859C22.7054 26.286 22.7155 26.2881 22.7249 26.2922C22.7441 26.3004 22.7592 26.3159 22.7671 26.3351C22.7749 26.3544 22.775 26.376 22.7671 26.3953C22.6217 26.7385 22.3792 27.0318 22.0695 27.2391C21.7597 27.4465 21.3961 27.5588 21.0234 27.5625Z" fill="#383333"/>
<path d="M11.7962 16.8859C11.7761 16.8863 11.7567 16.8789 11.7421 16.8652C11.7275 16.8514 11.7189 16.8325 11.718 16.8125C11.7167 16.792 11.7236 16.7718 11.737 16.7563C11.7505 16.7408 11.7695 16.7313 11.7899 16.7297C18.2477 16.3265 21.1024 11.7109 21.1305 11.6656C21.1358 11.6567 21.1428 11.649 21.1511 11.6429C21.1594 11.6367 21.1689 11.6323 21.1789 11.6298C21.1889 11.6274 21.1994 11.6269 21.2096 11.6285C21.2198 11.6301 21.2295 11.6337 21.2384 11.639C21.2472 11.6442 21.2549 11.651 21.261 11.6592C21.2671 11.6674 21.2715 11.6767 21.274 11.6866C21.2765 11.6965 21.2769 11.7068 21.2754 11.7168C21.2738 11.7269 21.2703 11.7366 21.2649 11.7453C21.2368 11.7922 18.343 16.4781 11.8009 16.8859H11.7962ZM31.3055 16.8859H31.2962C30.4009 16.7797 29.5774 16.0328 28.8712 14.664C28.54 14.0207 28.2721 13.3467 28.0712 12.6515C28.0658 12.6308 28.0688 12.6088 28.0797 12.5903C28.0905 12.5719 28.1083 12.5585 28.129 12.5531C28.1497 12.5477 28.1717 12.5508 28.1902 12.5616C28.2086 12.5725 28.222 12.5902 28.2274 12.6109C28.2384 12.65 29.3024 16.4922 31.3212 16.7312C31.3419 16.7325 31.3613 16.7419 31.375 16.7574C31.3888 16.773 31.3958 16.7933 31.3946 16.814C31.3934 16.8348 31.3839 16.8541 31.3684 16.8679C31.3529 16.8817 31.3325 16.8887 31.3118 16.8875L31.3055 16.8859ZM11.1368 14.825C10.9165 14.825 10.6977 14.8156 10.4774 14.7969C10.4671 14.7961 10.4571 14.7932 10.448 14.7886C10.4388 14.7839 10.4306 14.7775 10.4239 14.7696C10.4172 14.7618 10.4122 14.7527 10.409 14.7429C10.4059 14.7331 10.4047 14.7227 10.4055 14.7125C10.4079 14.6922 10.418 14.6735 10.4337 14.6605C10.4494 14.6474 10.4695 14.6408 10.4899 14.6422C14.3305 14.9547 18.3024 12.2672 18.3477 12.239C18.365 12.2275 18.3861 12.2232 18.4065 12.227C18.427 12.2307 18.4451 12.2424 18.4571 12.2593C18.463 12.2678 18.4672 12.2774 18.4694 12.2875C18.4716 12.2977 18.4717 12.3081 18.4698 12.3183C18.4679 12.3285 18.464 12.3382 18.4584 12.3468C18.4527 12.3555 18.4454 12.3629 18.4368 12.3687C18.3993 12.3937 14.8149 14.825 11.1368 14.825Z" fill="white"/>
<path d="M3.22852 31.2172V31.5781C3.22852 31.7274 3.34954 31.8484 3.49883 31.8484H7.79102C7.9403 31.8484 8.06133 31.7274 8.06133 31.5781V31.2172C8.06133 31.0679 7.9403 30.9469 7.79102 30.9469H3.49883C3.34954 30.9469 3.22852 31.0679 3.22852 31.2172Z" fill="#FFB833"/>
<path d="M5.46641 33.814H5.82734C5.97663 33.814 6.09766 33.693 6.09766 33.5437L6.09766 29.2515C6.09766 29.1022 5.97663 28.9812 5.82734 28.9812H5.46641C5.31712 28.9812 5.19609 29.1022 5.19609 29.2515L5.19609 33.5437C5.19609 33.693 5.31712 33.814 5.46641 33.814Z" fill="#FFB833"/>
<path d="M36.8828 9.82341V10.0015C36.8828 10.1508 37.0038 10.2719 37.1531 10.2719H40.4594C40.6087 10.2719 40.7297 10.1508 40.7297 10.0015V9.82341C40.7297 9.67412 40.6087 9.5531 40.4594 9.5531H37.1531C37.0038 9.5531 36.8828 9.67412 36.8828 9.82341Z" fill="#FFB833"/>
<path d="M38.7176 11.8359H38.8957C39.045 11.8359 39.166 11.7149 39.166 11.5656V8.25938C39.166 8.11009 39.045 7.98906 38.8957 7.98906H38.7176C38.5683 7.98906 38.4473 8.11009 38.4473 8.25938V11.5656C38.4473 11.7149 38.5683 11.8359 38.7176 11.8359Z" fill="#FFB833"/>
<path d="M34.707 34.2328V34.4109C34.707 34.5602 34.8281 34.6812 34.9773 34.6812H38.2836C38.4329 34.6812 38.5539 34.5602 38.5539 34.4109V34.2328C38.5539 34.0835 38.4329 33.9625 38.2836 33.9625H34.9773C34.8281 33.9625 34.707 34.0835 34.707 34.2328Z" fill="#FFB833"/>
<path d="M36.5428 36.2453H36.7209C36.8702 36.2453 36.9912 36.1243 36.9912 35.975V32.6687C36.9912 32.5194 36.8702 32.3984 36.7209 32.3984H36.5428C36.3935 32.3984 36.2725 32.5194 36.2725 32.6687V35.975C36.2725 36.1243 36.3935 36.2453 36.5428 36.2453Z" fill="#FFB833"/>
<path d="M41.0332 31.9922L57.502 31.9922C58.4253 31.9922 59.1738 31.2437 59.1738 30.3203V16.9766C59.1738 16.0532 58.4253 15.3047 57.502 15.3047L41.0332 15.3047C40.1099 15.3047 39.3613 16.0532 39.3613 16.9766V30.3203C39.3613 31.2437 40.1099 31.9922 41.0332 31.9922Z" fill="#FFDB99"/>
<path d="M57.3915 30.9047C57.3915 30.9047 57.004 35.1234 53.9321 35.0718C53.7024 35.0718 53.579 34.6328 53.7227 34.3343C54.0446 33.6656 54.4087 32.4015 54.3477 30.1578L57.3915 30.9047Z" fill="#FFDB99"/>
<path d="M69.7773 71.5469L1.10547 71.2344C1.00187 71.2344 0.902512 71.1932 0.829255 71.12C0.755999 71.0467 0.714844 70.9474 0.714844 70.8438C0.714844 70.7401 0.755999 70.6408 0.829255 70.5675C0.902512 70.4943 1.00187 70.4531 1.10547 70.4531L69.7773 70.7656C69.8809 70.7656 69.9803 70.8068 70.0536 70.88C70.1268 70.9533 70.168 71.0526 70.168 71.1562C70.168 71.2599 70.1268 71.3592 70.0536 71.4325C69.9803 71.5057 69.8809 71.5469 69.7773 71.5469Z" fill="#383333"/>
<path d="M23.3395 5.19531H18.9176C18.6276 5.19531 18.3926 5.43036 18.3926 5.72031V6.3875C18.3926 6.67745 18.6276 6.9125 18.9176 6.9125H23.3395C23.6294 6.9125 23.8645 6.67745 23.8645 6.3875V5.72031C23.8645 5.43036 23.6294 5.19531 23.3395 5.19531Z" fill="#637FFF"/>
<path d="M21.4617 3.31873H20.7945C20.5046 3.31873 20.2695 3.55378 20.2695 3.84373V8.2656C20.2695 8.55555 20.5046 8.7906 20.7945 8.7906H21.4617C21.7517 8.7906 21.9867 8.55555 21.9867 8.2656V3.84373C21.9867 3.55378 21.7517 3.31873 21.4617 3.31873Z" fill="#637FFF"/>
<path d="M21.9148 47.1109C21.8874 47.1111 21.8605 47.1041 21.8367 47.0906C15.7757 43.6531 13.3507 36.4234 13.3273 36.35C13.3162 36.3111 13.3206 36.2694 13.3396 36.2337C13.3586 36.198 13.3906 36.1711 13.4291 36.1585C13.4675 36.146 13.5093 36.1488 13.5457 36.1665C13.5821 36.1841 13.6102 36.2151 13.6242 36.2531C13.6476 36.3234 16.007 43.3593 21.882 46.7562C22.4898 46.0703 26.2773 41.6687 28.271 36.2468C28.2781 36.2275 28.2889 36.2098 28.3028 36.1947C28.3168 36.1796 28.3335 36.1674 28.3522 36.1588C28.3708 36.1501 28.391 36.1453 28.4115 36.1444C28.432 36.1436 28.4525 36.1468 28.4718 36.1539C28.4911 36.1609 28.5088 36.1718 28.5239 36.1857C28.539 36.1996 28.5513 36.2164 28.5599 36.235C28.5685 36.2536 28.5734 36.2738 28.5742 36.2943C28.5751 36.3149 28.5719 36.3354 28.5648 36.3546C26.3773 42.2921 22.0726 47.014 22.0288 47.0609C22.0143 47.0766 21.9966 47.0892 21.977 47.0978C21.9574 47.1064 21.9362 47.1108 21.9148 47.1109Z" fill="#637FFF"/>
<path d="M42.9897 27.6734H55.5459C55.6186 27.674 55.6906 27.659 55.7571 27.6295C55.8235 27.6 55.8829 27.5567 55.9313 27.5024C55.9796 27.4481 56.0158 27.3841 56.0375 27.3147C56.0592 27.2453 56.0658 27.1721 56.0569 27.1C55.5631 23.4609 52.335 20.7922 48.8319 21.0062C45.635 21.2062 42.9241 23.7656 42.4803 27.0797C42.4693 27.1531 42.4743 27.228 42.4948 27.2993C42.5153 27.3706 42.5509 27.4367 42.5993 27.493C42.6476 27.5493 42.7075 27.5946 42.7748 27.6257C42.8422 27.6568 42.9155 27.6731 42.9897 27.6734Z" fill="#FFB833"/>
<path d="M49.3066 18.8765H49.2316C48.8071 18.8765 48.4629 19.2207 48.4629 19.6453V21.375C48.4629 21.7995 48.8071 22.1437 49.2316 22.1437H49.3066C49.7312 22.1437 50.0754 21.7995 50.0754 21.375V19.6453C50.0754 19.2207 49.7312 18.8765 49.3066 18.8765Z" fill="#FF832F"/>
</svg>
