<svg width="40" height="40" viewBox="0 0 40 40" fill="none" xmlns="http://www.w3.org/2000/svg">
<path d="M0 4.6467C0 3.29988 0.450463 2.18877 1.35135 1.31337C2.25224 0.43794 3.42344 0.000244141 4.86486 0.000244141C6.28058 0.000244141 7.42598 0.431193 8.30116 1.29317C9.20205 2.18206 9.65251 3.34028 9.65251 4.76791C9.65251 6.06084 9.21494 7.13825 8.33977 8.00023C7.43888 8.88912 6.25483 9.33356 4.78764 9.33356H4.74903C3.33332 9.33356 2.18792 8.88912 1.31274 8.00023C0.437568 7.11134 0 5.99349 0 4.6467ZM0.50193 40.0002V13.0103H9.07336V40.0002H0.50193ZM13.8224 40.0002H22.3938V24.9295C22.3938 23.9867 22.4968 23.2594 22.7027 22.7477C23.063 21.8318 23.61 21.0574 24.3436 20.4245C25.0772 19.7914 25.9974 19.475 27.1042 19.475C29.9871 19.475 31.4286 21.5086 31.4286 25.576V40.0002H40V24.5255C40 20.5389 39.0991 17.5154 37.2973 15.4548C35.4955 13.3942 33.1146 12.3639 30.1544 12.3639C26.834 12.3639 24.2471 13.8588 22.3938 16.8487V16.9295H22.3552L22.3938 16.8487V13.0103H13.8224C13.8739 13.8723 13.8996 16.5524 13.8996 21.0507C13.8996 25.549 13.8739 31.8655 13.8224 40.0002Z" fill="#5271FF"/>
</svg>
