<svg width="80" height="80" viewBox="0 0 80 80" fill="none" xmlns="http://www.w3.org/2000/svg">
<path d="M48.5415 69.8698H18.229C16.6757 69.8698 15.4165 68.6104 15.4165 67.0573V12.9426C15.4165 11.3893 16.6757 10.1301 18.229 10.1301H48.5415C50.0948 10.1301 51.354 11.3893 51.354 12.9426V67.0573C51.354 68.6104 50.0948 69.8698 48.5415 69.8698V69.8698Z" fill="#3F5EAB"/>
<path d="M17.7085 15.0261H49.0627V63.3543H17.7085V15.0261Z" fill="#9DAFFF"/>
<path d="M37.8926 65.5912H28.8778C28.731 65.5912 28.5857 65.6202 28.4501 65.6763C28.3145 65.7325 28.1913 65.8148 28.0876 65.9186C27.9838 66.0223 27.9015 66.1455 27.8453 66.2811C27.7892 66.4167 27.7603 66.562 27.7603 66.7088C27.7603 66.8555 27.7892 67.0008 27.8453 67.1364C27.9015 67.272 27.9838 67.3952 28.0876 67.4989C28.1913 67.6027 28.3145 67.685 28.4501 67.7412C28.5857 67.7973 28.731 67.8263 28.8778 67.8263H37.8926C38.189 67.8263 38.4732 67.7085 38.6828 67.4989C38.8924 67.2894 39.0101 67.0051 39.0101 66.7088C39.0101 66.562 38.9812 66.4167 38.9251 66.2811C38.8689 66.1455 38.7866 66.0223 38.6828 65.9185C38.5791 65.8147 38.4559 65.7324 38.3203 65.6763C38.1847 65.6201 38.0394 65.5912 37.8926 65.5912ZM35.8592 12.1484H30.9113C30.1573 12.1484 30.156 13.3203 30.9113 13.3203H35.8592C36.6132 13.3203 36.6143 12.1484 35.8592 12.1484Z" fill="white"/>
<path d="M59.8047 25.4189H35.6902C33.051 25.4189 30.9116 27.5583 30.9116 30.1975V42.1431C30.9116 44.7823 33.051 46.9217 35.6902 46.9217H40.7072L43.6152 51.9589L46.5235 46.9217H59.8047C62.444 46.9217 64.5835 44.7823 64.5835 42.1431V30.1975C64.5835 27.5583 62.444 25.4189 59.8047 25.4189Z" fill="url(#paint0_linear_659_110)"/>
<path d="M39.8828 37.8386C40.7745 37.8386 41.4974 37.1156 41.4974 36.2239C41.4974 35.3321 40.7745 34.6092 39.8828 34.6092C38.991 34.6092 38.2681 35.3321 38.2681 36.2239C38.2681 37.1156 38.991 37.8386 39.8828 37.8386Z" fill="#3F5EAB"/>
<path d="M47.8515 37.8386C48.7433 37.8386 49.4662 37.1156 49.4662 36.2239C49.4662 35.3321 48.7433 34.6092 47.8515 34.6092C46.9597 34.6092 46.2368 35.3321 46.2368 36.2239C46.2368 37.1156 46.9597 37.8386 47.8515 37.8386Z" fill="#3F5EAB"/>
<path d="M55.6121 37.8384C56.5038 37.8384 57.2266 37.1156 57.2266 36.2239C57.2266 35.3322 56.5038 34.6094 55.6121 34.6094C54.7204 34.6094 53.9976 35.3322 53.9976 36.2239C53.9976 37.1156 54.7204 37.8384 55.6121 37.8384Z" fill="#3F5EAB"/>
<defs>
<linearGradient id="paint0_linear_659_110" x1="47.7476" y1="51.9589" x2="47.7476" y2="25.4189" gradientUnits="userSpaceOnUse">
<stop stop-color="#B3B3B3"/>
<stop offset="0.017" stop-color="#B9B9B9"/>
<stop offset="0.108" stop-color="#D2D2D2"/>
<stop offset="0.209" stop-color="#E6E6E6"/>
<stop offset="0.325" stop-color="#F4F4F4"/>
<stop offset="0.466" stop-color="#FDFDFD"/>
<stop offset="0.709" stop-color="white"/>
</linearGradient>
</defs>
</svg>
