<svg width="80" height="80" viewBox="0 0 80 80" fill="none" xmlns="http://www.w3.org/2000/svg">
<path d="M70.625 8.20312H9.375C6.78617 8.20312 4.6875 10.3018 4.6875 12.8906V74.1406C4.6875 76.7295 6.78617 78.8281 9.375 78.8281H70.625C73.2138 78.8281 75.3125 76.7295 75.3125 74.1406V12.8906C75.3125 10.3018 73.2138 8.20312 70.625 8.20312Z" fill="#F2F2F2"/>
<path d="M70.625 8.20312H65.9375C67.1807 8.20312 68.373 8.69699 69.2521 9.57606C70.1311 10.4551 70.625 11.6474 70.625 12.8906V74.1406C70.625 75.3838 70.1311 76.5761 69.2521 77.4552C68.373 78.3343 67.1807 78.8281 65.9375 78.8281H70.625C71.8682 78.8281 73.0605 78.3343 73.9396 77.4552C74.8186 76.5761 75.3125 75.3838 75.3125 74.1406V12.8906C75.3125 11.6474 74.8186 10.4551 73.9396 9.57606C73.0605 8.69699 71.8682 8.20312 70.625 8.20312Z" fill="#DEDEDE"/>
<path d="M70.625 8.20312H9.375C8.1318 8.20312 6.93951 8.69699 6.06044 9.57606C5.18136 10.4551 4.6875 11.6474 4.6875 12.8906V23.1978H75.3125V12.8906C75.3125 11.6474 74.8186 10.4551 73.9396 9.57606C73.0605 8.69699 71.8682 8.20312 70.625 8.20312Z" fill="#FF6666"/>
<path d="M70.625 8.20312H65.9375C67.1807 8.20312 68.373 8.69699 69.2521 9.57606C70.1311 10.4551 70.625 11.6474 70.625 12.8906V23.1978H75.3125V12.8906C75.3125 11.6474 74.8186 10.4551 73.9396 9.57606C73.0605 8.69699 71.8682 8.20312 70.625 8.20312Z" fill="#FF4E4E"/>
<path d="M23.125 4.21875C23.125 2.53601 21.7609 1.17188 20.0781 1.17188C18.3954 1.17188 17.0312 2.53601 17.0312 4.21875V12.4656C17.0312 14.1484 18.3954 15.5125 20.0781 15.5125C21.7609 15.5125 23.125 14.1484 23.125 12.4656V4.21875Z" fill="#676E87"/>
<path d="M20.0781 1.17188C19.6758 1.17161 19.2775 1.25128 18.9062 1.40625C19.4615 1.63764 19.9358 2.02819 20.2695 2.52868C20.6031 3.02918 20.7812 3.61723 20.7812 4.21875V12.4656C20.7812 13.0671 20.6031 13.6552 20.2695 14.1557C19.9358 14.6562 19.4615 15.0467 18.9062 15.2781C19.2775 15.4331 19.6758 15.5128 20.0781 15.5125C20.8862 15.5125 21.6612 15.1915 22.2326 14.6201C22.804 14.0487 23.125 13.2737 23.125 12.4656V4.21875C23.125 3.41067 22.804 2.63568 22.2326 2.06428C21.6612 1.49288 20.8862 1.17188 20.0781 1.17188V1.17188Z" fill="#595F74"/>
<path d="M62.9688 4.21875C62.9688 2.53601 61.6046 1.17188 59.9219 1.17188C58.2391 1.17188 56.875 2.53601 56.875 4.21875V12.4656C56.875 14.1484 58.2391 15.5125 59.9219 15.5125C61.6046 15.5125 62.9688 14.1484 62.9688 12.4656V4.21875Z" fill="#676E87"/>
<path d="M59.9219 1.17188C59.5196 1.17161 59.1212 1.25128 58.75 1.40625C59.3052 1.63764 59.7796 2.02819 60.1132 2.52868C60.4469 3.02918 60.625 3.61723 60.625 4.21875V12.4656C60.625 13.0671 60.4469 13.6552 60.1132 14.1557C59.7796 14.6562 59.3052 15.0467 58.75 15.2781C59.1212 15.4331 59.5196 15.5128 59.9219 15.5125C60.73 15.5125 61.5049 15.1915 62.0763 14.6201C62.6477 14.0487 62.9688 13.2737 62.9688 12.4656V4.21875C62.9688 3.41067 62.6477 2.63568 62.0763 2.06428C61.5049 1.49288 60.73 1.17188 59.9219 1.17188Z" fill="#595F74"/>
<path d="M33.0469 55.125C30.1471 55.1217 27.367 53.9683 25.3165 51.9178C23.2661 49.8674 22.1127 47.0873 22.1094 44.1875V35.3594C22.11 34.8001 22.3324 34.264 22.7279 33.8685C23.1233 33.4731 23.6595 33.2506 24.2188 33.25H28.3594C28.6702 33.25 28.9682 33.3735 29.188 33.5932C29.4078 33.813 29.5312 34.1111 29.5312 34.4219C29.5312 34.7327 29.4078 35.0307 29.188 35.2505C28.9682 35.4703 28.6702 35.5938 28.3594 35.5938H24.4531V44.1875C24.4531 46.4667 25.3585 48.6526 26.9702 50.2642C28.5818 51.8758 30.7677 52.7812 33.0469 52.7812C35.3261 52.7812 37.5119 51.8758 39.1236 50.2642C40.7352 48.6526 41.6406 46.4667 41.6406 44.1875V35.5938H37.7344C37.4236 35.5938 37.1255 35.4703 36.9057 35.2505C36.686 35.0307 36.5625 34.7327 36.5625 34.4219C36.5625 34.1111 36.686 33.813 36.9057 33.5932C37.1255 33.3735 37.4236 33.25 37.7344 33.25H41.875C42.4343 33.2506 42.9704 33.4731 43.3659 33.8685C43.7613 34.264 43.9838 34.8001 43.9844 35.3594V44.1875C43.9811 47.0873 42.8277 49.8674 40.7772 51.9178C38.7267 53.9683 35.9467 55.1217 33.0469 55.125V55.125Z" fill="#3B3F4D"/>
<path d="M37.7554 36.7656C39.0498 36.7656 40.0991 35.7163 40.0991 34.4219C40.0991 33.1275 39.0498 32.0781 37.7554 32.0781C36.461 32.0781 35.4116 33.1275 35.4116 34.4219C35.4116 35.7163 36.461 36.7656 37.7554 36.7656Z" fill="#3B3F4D"/>
<path d="M51.7397 50.9062C54.3286 50.9062 56.4272 48.8076 56.4272 46.2188C56.4272 43.6299 54.3286 41.5312 51.7397 41.5312C49.1509 41.5312 47.0522 43.6299 47.0522 46.2188C47.0522 48.8076 49.1509 50.9062 51.7397 50.9062Z" fill="#3B3F4D"/>
<path d="M51.7397 47.3906C52.387 47.3906 52.9116 46.866 52.9116 46.2188C52.9116 45.5715 52.387 45.0469 51.7397 45.0469C51.0925 45.0469 50.5679 45.5715 50.5679 46.2188C50.5679 46.866 51.0925 47.3906 51.7397 47.3906Z" fill="#595F74"/>
<path d="M68.2812 72.9678C68.9285 72.9678 69.4531 72.4432 69.4531 71.796C69.4531 71.1488 68.9285 70.6241 68.2812 70.6241C67.634 70.6241 67.1094 71.1488 67.1094 71.796C67.1094 72.4432 67.634 72.9678 68.2812 72.9678Z" fill="#676E87"/>
<path d="M63.5938 72.9678C64.241 72.9678 64.7656 72.4432 64.7656 71.796C64.7656 71.1488 64.241 70.6241 63.5938 70.6241C62.9465 70.6241 62.4219 71.1488 62.4219 71.796C62.4219 72.4432 62.9465 72.9678 63.5938 72.9678Z" fill="#676E87"/>
<path d="M58.9062 72.9678C59.5535 72.9678 60.0781 72.4432 60.0781 71.796C60.0781 71.1488 59.5535 70.6241 58.9062 70.6241C58.259 70.6241 57.7344 71.1488 57.7344 71.796C57.7344 72.4432 58.259 72.9678 58.9062 72.9678Z" fill="#676E87"/>
<path d="M28.3804 36.7656C29.6748 36.7656 30.7241 35.7163 30.7241 34.4219C30.7241 33.1275 29.6748 32.0781 28.3804 32.0781C27.086 32.0781 26.0366 33.1275 26.0366 34.4219C26.0366 35.7163 27.086 36.7656 28.3804 36.7656Z" fill="#3B3F4D"/>
<path d="M42.3933 70.7292C39.6046 70.7261 36.9311 69.6169 34.9593 67.6451C32.9874 65.6732 31.8782 62.9997 31.875 60.2111V53.9531C31.875 53.6423 31.9985 53.3443 32.2182 53.1245C32.438 52.9047 32.7361 52.7812 33.0469 52.7812C33.3577 52.7812 33.6557 52.9047 33.8755 53.1245C34.0953 53.3443 34.2188 53.6423 34.2188 53.9531V60.2109C34.2187 62.3789 35.08 64.4581 36.613 65.9912C38.146 67.5242 40.2252 68.3854 42.3932 68.3854C44.5612 68.3854 46.6404 67.5242 48.1734 65.9912C49.7064 64.4581 50.5677 62.3789 50.5677 60.2109V50.9062C50.5677 50.5954 50.6911 50.2974 50.9109 50.0776C51.1307 49.8578 51.4287 49.7344 51.7395 49.7344C52.0503 49.7344 52.3484 49.8578 52.5682 50.0776C52.7879 50.2974 52.9114 50.5954 52.9114 50.9062V60.2109C52.9083 62.9996 51.7991 65.6731 49.8273 67.645C47.8554 69.6168 45.1819 70.726 42.3933 70.7292V70.7292Z" fill="#3B3F4D"/>
</svg>
