<svg width="34" height="28" viewBox="0 0 34 28" fill="none" xmlns="http://www.w3.org/2000/svg">
<path d="M33.6668 3.66677C32.4141 4.21026 31.0892 4.56954 29.7335 4.73344C31.1638 3.87897 32.2356 2.53474 32.7502 0.950105C31.4061 1.75021 29.9348 2.31393 28.4002 2.61677C27.3744 1.50439 26.0084 0.763933 24.5165 0.511524C23.0246 0.259116 21.4911 0.509036 20.1565 1.22209C18.8219 1.93514 17.7617 3.07099 17.1422 4.4515C16.5227 5.83201 16.379 7.37909 16.7335 8.8501C14.0159 8.71265 11.3576 8.00503 8.93125 6.77321C6.50494 5.54139 4.36491 3.81293 2.65016 1.7001C2.04873 2.75039 1.73269 3.93981 1.7335 5.1501C1.73136 6.27408 2.00719 7.38113 2.53642 8.37271C3.06565 9.36429 3.83186 10.2096 4.76683 10.8334C3.68012 10.8039 2.61664 10.5123 1.66683 9.98344V10.0668C1.67497 11.6416 2.22682 13.1653 3.22902 14.38C4.23122 15.5948 5.62226 16.4262 7.16683 16.7334C6.57225 16.9144 5.95495 17.0098 5.3335 17.0168C4.90331 17.0117 4.4742 16.9727 4.05016 16.9001C4.49001 18.2548 5.3412 19.4387 6.48529 20.287C7.62937 21.1354 9.00945 21.606 10.4335 21.6334C8.02883 23.5255 5.05997 24.5582 2.00016 24.5668C1.44305 24.5686 0.886389 24.5352 0.333496 24.4668C3.45754 26.4839 7.09818 27.5546 10.8168 27.5501C13.383 27.5768 15.9287 27.0918 18.3054 26.1236C20.682 25.1553 22.8419 23.7232 24.6588 21.9109C26.4758 20.0986 27.9134 17.9424 28.8878 15.5683C29.8621 13.1941 30.3536 10.6497 30.3335 8.08344C30.3335 7.8001 30.3335 7.5001 30.3335 7.2001C31.6413 6.22479 32.7693 5.02915 33.6668 3.66677Z" fill="#5271FF"/>
</svg>
